<svg id="Layer_1" data-name="Layer 1" xmlns="http://www.w3.org/2000/svg" viewBox="0 0 1366 1367"><defs><style>.cls-1{fill:#b8c9a1;stroke:#b8c9a1;}.cls-1,.cls-3,.cls-5,.cls-6,.cls-8{stroke-miterlimit:10;}.cls-2{fill:#fff;}.cls-3,.cls-7{fill:#f2f2f2;}.cls-3,.cls-6{stroke:#f2f2f2;}.cls-4{fill:#e0e0e0;}.cls-5,.cls-6{fill:none;}.cls-5{stroke:#8fa374;}.cls-8{fill:#859370;stroke:#859370;stroke-width:0.75px;}</style></defs><title>Logo Odontologia 2</title><rect class="cls-1" x="0.5" y="0.5" width="1365" height="1366"/><path class="cls-2" d="M371.77,909.57c0,12.61-6.73,24.09-21,24.09-13,0-20.59-10.49-20.59-23.76,0-13.07,7.32-23.76,21.05-23.76C363.92,886.14,371.77,896.11,371.77,909.57ZM334,909.7c0,10.63,5.88,20.66,17,20.66,11.95,0,17-9.77,17-20.72,0-10.76-5.67-20.2-16.82-20.2C339.24,889.44,334,899.28,334,909.7Z" transform="translate(0 0)"/><path class="cls-2" d="M381.94,886.8h15.31c12.67,0,21.45,8.85,21.45,22.71S410.12,933,397.18,933H381.94Zm3.56,42.9h11.16c12.21,0,18.21-8.58,18.21-20,0-10.16-5.41-19.6-18.21-19.6H385.5Z" transform="translate(0 0)"/><path class="cls-2" d="M467.67,909.57c0,12.61-6.73,24.09-21,24.09-13,0-20.59-10.49-20.59-23.76,0-13.07,7.33-23.76,21.06-23.76C459.82,886.14,467.67,896.11,467.67,909.57Zm-37.75.13c0,10.63,5.87,20.66,17,20.66,11.95,0,17-9.77,17-20.72,0-10.76-5.67-20.2-16.83-20.2C435.13,889.44,429.92,899.28,429.92,909.7Z" transform="translate(0 0)"/><path class="cls-2" d="M477.84,933V886.8h5.28c7.19,11.09,24.08,36.89,27,41.91h.06c-.39-6.67-.33-13.46-.33-21V886.8h3.63V933h-4.88c-6.86-10.69-24-37.55-27.32-42.63h-.07c.33,6.07.26,12.8.26,21.18V933Z" transform="translate(0 0)"/><path class="cls-2" d="M536.31,890.1H520.8v-3.3h34.71v3.3H539.94V933h-3.63Z" transform="translate(0 0)"/><path class="cls-2" d="M599.93,909.57c0,12.61-6.73,24.09-21,24.09-13,0-20.6-10.49-20.6-23.76,0-13.07,7.33-23.76,21.06-23.76C592.08,886.14,599.93,896.11,599.93,909.57Zm-37.75.13c0,10.63,5.88,20.66,17,20.66,12,0,17-9.77,17-20.72,0-10.76-5.67-20.2-16.82-20.2C567.4,889.44,562.18,899.28,562.18,909.7Z" transform="translate(0 0)"/><path class="cls-2" d="M610.1,886.8h3.56v42.9h24.81l-.66,3.3H610.1Z" transform="translate(0 0)"/><path class="cls-2" d="M683,909.57c0,12.61-6.73,24.09-21,24.09-13,0-20.59-10.49-20.59-23.76,0-13.07,7.32-23.76,21-23.76C675.17,886.14,683,896.11,683,909.57Zm-37.74.13c0,10.63,5.87,20.66,17,20.66,11.94,0,17-9.77,17-20.72,0-10.76-5.68-20.2-16.83-20.2C650.49,889.44,645.28,899.28,645.28,909.7Z" transform="translate(0 0)"/><path class="cls-2" d="M728.83,933h-3c-.27-.53-.4-2.9-.46-7.39-1.65,3.17-5.28,7.92-14.92,7.92-13.26,0-20.06-10.1-20.06-23.23,0-13.8,7.26-24.16,20.79-24.16,10,0,16.56,5.22,18,13.73h-3.56c-2-6.53-6.53-10.43-14.58-10.43-11.55,0-16.83,9-16.83,20.66,0,10.56,5.08,20.13,16.36,20.13,11.55,0,14.79-7.52,14.79-17.75V912H710.48v-3.3h18.35Z" transform="translate(0 0)"/><path class="cls-2" d="M744.34,886.8V933h-3.56V886.8Z" transform="translate(0 0)"/><path class="cls-2" d="M762.23,917l-5.88,16h-3.63l17-46.2h4.23L791.59,933H787.7l-6-16Zm18.28-3.3c-5.15-13.73-7.79-20.33-8.72-23.43h-.06c-1.12,3.5-4.09,11.68-8.25,23.43Z" transform="translate(0 0)"/><path class="cls-2" d="M820.37,886.8v28c0,12.27,6.93,15.44,13.46,15.44,7.72,0,13.47-3.24,13.47-15.44v-28h3.63v27.79c0,14.45-7.66,18.94-17.23,18.94-9.11,0-17-4.95-17-18.35V886.8Z" transform="translate(0 0)"/><path class="cls-2" d="M863.86,933V886.8h5.28c7.2,11.09,24.09,36.89,27,41.91h.07c-.4-6.67-.33-13.46-.33-21V886.8h3.63V933h-4.88c-6.87-10.69-24-37.55-27.32-42.63h-.07c.33,6.07.26,12.8.26,21.18V933Z" transform="translate(0 0)"/><path class="cls-2" d="M916.66,886.8V933H913.1V886.8Z" transform="translate(0 0)"/><path class="cls-2" d="M934.55,917l-5.88,16H925l17-46.2h4.22L963.92,933H960l-6-16Zm18.28-3.3C947.68,900,945,893.4,944.12,890.3h-.07c-1.12,3.5-4.09,11.68-8.25,23.43Z" transform="translate(0 0)"/><path class="cls-2" d="M975.73,911.42V933H972.1V886.8h16.57c9.1,0,13.92,4.89,13.92,12.15A10.46,10.46,0,0,1,994,909.77c4.75,1.12,7.92,4.22,7.92,12.08v1.78c0,3.23-.27,7.59.59,9.37h-3.63c-.86-2-.66-5.68-.66-9.63v-1.19c0-7.59-2.24-10.76-11.09-10.76Zm0-3.3h11.15c8.12,0,11.88-3,11.88-9.11,0-5.67-3.69-8.91-10.88-8.91H975.73Z" transform="translate(0 0)"/><path class="cls-2" d="M1019.16,917l-5.88,16h-3.63l17-46.2h4.22l17.69,46.2h-3.9l-6-16Zm18.28-3.3c-5.15-13.73-7.79-20.33-8.71-23.43h-.07c-1.12,3.5-4.09,11.68-8.25,23.43Z" transform="translate(0 0)"/><path class="cls-3" d="M686.69,583.2c-8.89-2.56-17,.8-22.76,8-21.88,27.61-16.5,67-23.1,101.66-1.29,6.78-3.17,13.66-7.3,19.18-32.06,42.84-61.48-53-67-75.14a764.4,764.4,0,0,1-21.26-141.5c-.83-15.15-1.07-31,5.68-44.61C578,396.4,635.9,433.08,679.71,435.46c44.78,2.44,107.64-43.44,136.88,15.38,6.75,13.58,6.51,29.46,5.68,44.61A764.4,764.4,0,0,1,801,637c-5.5,22.16-34.92,118-67,75.14-4.13-5.52-6-12.4-7.3-19.18-6.6-34.61-1.22-74-23.1-101.66-5.74-7.25-13.87-10.61-22.76-8" transform="translate(0 0)"/><path class="cls-4" d="M567.51,538.65c-2.4-10.21-5.1-19.89-7.27-30s-3.59-20.82-2.51-31.76a77.09,77.09,0,0,1,1.32-8.19,62.5,62.5,0,0,1,2.48-8,51.44,51.44,0,0,1,3.8-7.61,44.73,44.73,0,0,1,5.23-6.75,42.45,42.45,0,0,1,6.43-5.48,37.25,37.25,0,0,1,7.41-3.91,32,32,0,0,1,8.05-1.88,25.37,25.37,0,0,1,8,.64,39.79,39.79,0,0,0-7.26,2.34,38.77,38.77,0,0,0-6.26,3.67,42.59,42.59,0,0,0-5.31,4.69,49,49,0,0,0-4.38,5.42c-5.25,7.59-7.6,16.7-8.57,26.17s-.41,19.38.12,29.58c.23,5.1.45,10.28.35,15.51A80.78,80.78,0,0,1,567.51,538.65Z" transform="translate(0 0)"/><path class="cls-4" d="M742.91,706.39a23.85,23.85,0,0,0,11.57-4.85,30.81,30.81,0,0,0,7.8-8.8c4.11-6.72,6.37-14.79,9.13-23.14s5.45-16.54,8.32-24.83,5.82-16.62,9.56-25a115,115,0,0,1-1.16,27A162.34,162.34,0,0,1,781.86,673c-.73,2.12-1.43,4.24-2.23,6.38s-1.67,4.28-2.68,6.41A48.75,48.75,0,0,1,769.13,698,29.79,29.79,0,0,1,757,706.31C752.36,708,747.15,708.23,742.91,706.39Z" transform="translate(0 0)"/><line class="cls-5" x1="872.5" y1="781.5" x2="872.5" y2="755.5"/><line class="cls-6" x1="873" y1="755.5" x2="1059" y2="755.5"/><path class="cls-7" d="M1058,755.38a.38.38,0,0,0,0-.75.38.38,0,0,0,0,.75Z" transform="translate(0 0)"/><path class="cls-7" d="M1033.38,755V735a.38.38,0,0,0-.75,0v20a.38.38,0,0,0,.75,0Z" transform="translate(0 0)"/><path class="cls-7" d="M1037.55,756l-1.32-24c0-.48-.77-.49-.75,0l1.32,24c0,.48.78.48.75,0Z" transform="translate(0 0)"/><path class="cls-7" d="M1041.38,756V732a.38.38,0,0,0-.75,0v24a.38.38,0,0,0,.75,0Z" transform="translate(0 0)"/><path class="cls-7" d="M1044.38,756V727a.38.38,0,0,0-.75,0v29a.38.38,0,0,0,.75,0Z" transform="translate(0 0)"/><path class="cls-7" d="M1048.19,755l.59-33a.38.38,0,0,0-.75,0l-.59,33a.38.38,0,0,0,.75,0Z" transform="translate(0 0)"/><path class="cls-7" d="M1051.3,754l.24-37a.38.38,0,0,0-.75,0l-.24,37a.38.38,0,0,0,.75,0Z" transform="translate(0 0)"/><path class="cls-7" d="M1054.49,754l-1.57-18c0-.47-.79-.48-.75,0l1.57,18c0,.48.8.48.75,0Z" transform="translate(0 0)"/><path class="cls-7" d="M1036.38,753V726a.38.38,0,0,0-.75,0v27a.38.38,0,0,0,.75,0Z" transform="translate(0 0)"/><path class="cls-7" d="M1041.31,755q.39-17.52-.2-35c0-.48-.77-.48-.75,0q.59,17.52.2,35a.38.38,0,0,0,.75,0Z" transform="translate(0 0)"/><path class="cls-7" d="M1045.37,751V721a.38.38,0,0,0-.75,0v30a.38.38,0,0,0,.75,0Z" transform="translate(0 0)"/><path class="cls-7" d="M1054.24,755a128.68,128.68,0,0,0-1.61-32.14c-.09-.47-.81-.27-.73.2a127.08,127.08,0,0,1,1.59,31.94c0,.48.71.48.75,0Z" transform="translate(0 0)"/><path class="cls-7" d="M1055.26,752a140.57,140.57,0,0,0-.48-23c0-.48-.8-.48-.75,0a140.57,140.57,0,0,1,.48,23c0,.48.72.48.75,0Z" transform="translate(0 0)"/><path class="cls-7" d="M1032.27,758a271.68,271.68,0,0,0-.54-33c0-.48-.79-.48-.75,0a271.68,271.68,0,0,1,.54,33c0,.48.73.48.75,0Z" transform="translate(0 0)"/><path class="cls-7" d="M1037.28,753a309,309,0,0,0-.36-31c0-.48-.78-.48-.75,0a309,309,0,0,1,.36,31c0,.48.73.48.75,0Z" transform="translate(0 0)"/><path class="cls-7" d="M1058.08,756l1.28-33c0-.48-.73-.48-.75,0l-1.28,33c0,.48.73.48.75,0Z" transform="translate(0 0)"/><path class="cls-7" d="M1007.38,754V734a.38.38,0,0,0-.75,0v20a.38.38,0,0,0,.75,0Z" transform="translate(0 0)"/><path class="cls-7" d="M1011.55,755l-1.32-24c0-.48-.77-.49-.75,0l1.32,24c0,.48.78.48.75,0Z" transform="translate(0 0)"/><path class="cls-7" d="M1015.38,755V731a.38.38,0,0,0-.75,0v24a.38.38,0,0,0,.75,0Z" transform="translate(0 0)"/><path class="cls-7" d="M1018.38,755V726a.38.38,0,0,0-.75,0v29a.38.38,0,0,0,.75,0Z" transform="translate(0 0)"/><path class="cls-7" d="M1022.19,754l.59-33a.38.38,0,0,0-.75,0l-.59,33a.38.38,0,0,0,.75,0Z" transform="translate(0 0)"/><path class="cls-7" d="M1025.3,753l.24-37a.38.38,0,0,0-.75,0l-.24,37a.38.38,0,0,0,.75,0Z" transform="translate(0 0)"/><path class="cls-7" d="M1028.49,753l-1.57-18c0-.47-.79-.48-.75,0l1.57,18c0,.48.8.48.75,0Z" transform="translate(0 0)"/><path class="cls-7" d="M1010.38,752V725a.38.38,0,0,0-.75,0v27a.38.38,0,0,0,.75,0Z" transform="translate(0 0)"/><path class="cls-7" d="M1015.31,754q.39-17.52-.2-35c0-.48-.77-.48-.75,0q.58,17.52.2,35a.38.38,0,0,0,.75,0Z" transform="translate(0 0)"/><path class="cls-7" d="M1019.37,750V720a.38.38,0,0,0-.75,0v30a.38.38,0,0,0,.75,0Z" transform="translate(0 0)"/><path class="cls-7" d="M1028.24,754a128.68,128.68,0,0,0-1.61-32.14c-.09-.47-.81-.27-.73.2a127.08,127.08,0,0,1,1.59,31.94c0,.48.71.48.75,0Z" transform="translate(0 0)"/><path class="cls-7" d="M1029.26,751a140.57,140.57,0,0,0-.48-23c0-.48-.8-.48-.75,0a140.57,140.57,0,0,1,.48,23c0,.48.72.48.75,0Z" transform="translate(0 0)"/><path class="cls-7" d="M1006.27,757a271.68,271.68,0,0,0-.54-33c0-.48-.79-.48-.75,0a271.68,271.68,0,0,1,.54,33c0,.48.73.48.75,0Z" transform="translate(0 0)"/><path class="cls-7" d="M1011.28,752a309,309,0,0,0-.36-31c0-.48-.78-.48-.75,0a309,309,0,0,1,.36,31c0,.48.73.48.75,0Z" transform="translate(0 0)"/><path class="cls-7" d="M1032.08,755l1.28-33c0-.48-.73-.48-.75,0l-1.28,33c0,.48.73.48.75,0Z" transform="translate(0 0)"/><path class="cls-7" d="M981.38,753V733a.38.38,0,0,0-.75,0v20a.38.38,0,0,0,.75,0Z" transform="translate(0 0)"/><path class="cls-7" d="M985.55,754l-1.32-24c0-.48-.77-.49-.75,0l1.32,24c0,.48.78.48.75,0Z" transform="translate(0 0)"/><path class="cls-7" d="M989.38,754V730a.38.38,0,0,0-.75,0v24a.38.38,0,0,0,.75,0Z" transform="translate(0 0)"/><path class="cls-7" d="M992.38,754V725a.38.38,0,0,0-.75,0v29a.38.38,0,0,0,.75,0Z" transform="translate(0 0)"/><path class="cls-7" d="M996.19,753l.59-33a.38.38,0,0,0-.75,0l-.59,33a.38.38,0,0,0,.75,0Z" transform="translate(0 0)"/><path class="cls-7" d="M999.3,752l.24-37a.38.38,0,0,0-.75,0l-.24,37a.38.38,0,0,0,.75,0Z" transform="translate(0 0)"/><path class="cls-7" d="M1002.49,752l-1.57-18c0-.47-.79-.48-.75,0l1.57,18c0,.48.8.48.75,0Z" transform="translate(0 0)"/><path class="cls-7" d="M984.38,751V724a.38.38,0,0,0-.75,0v27a.38.38,0,0,0,.75,0Z" transform="translate(0 0)"/><path class="cls-7" d="M989.31,753q.39-17.52-.2-35c0-.48-.77-.48-.75,0q.58,17.52.2,35a.38.38,0,0,0,.75,0Z" transform="translate(0 0)"/><path class="cls-7" d="M993.37,749V719a.38.38,0,0,0-.75,0v30a.38.38,0,0,0,.75,0Z" transform="translate(0 0)"/><path class="cls-7" d="M1002.24,753a128.68,128.68,0,0,0-1.61-32.14c-.09-.47-.81-.27-.73.2a127.08,127.08,0,0,1,1.59,31.94c0,.48.71.48.75,0Z" transform="translate(0 0)"/><path class="cls-7" d="M1003.26,750a140.57,140.57,0,0,0-.48-23c0-.48-.8-.48-.75,0a140.57,140.57,0,0,1,.48,23c0,.48.72.48.75,0Z" transform="translate(0 0)"/><path class="cls-7" d="M980.27,756a271.68,271.68,0,0,0-.54-33c0-.48-.79-.48-.75,0a271.68,271.68,0,0,1,.54,33c0,.48.73.48.75,0Z" transform="translate(0 0)"/><path class="cls-7" d="M985.28,751a309,309,0,0,0-.36-31c0-.48-.78-.48-.75,0a309,309,0,0,1,.36,31c0,.48.73.48.75,0Z" transform="translate(0 0)"/><path class="cls-7" d="M1006.08,754l1.28-33c0-.48-.73-.48-.75,0l-1.28,33c0,.48.73.48.75,0Z" transform="translate(0 0)"/><path class="cls-7" d="M954.38,754V734a.38.38,0,0,0-.75,0v20a.38.38,0,0,0,.75,0Z" transform="translate(0 0)"/><path class="cls-7" d="M958.55,755l-1.32-24c0-.48-.77-.49-.75,0l1.32,24c0,.48.78.48.75,0Z" transform="translate(0 0)"/><path class="cls-7" d="M962.38,755V731a.38.38,0,0,0-.75,0v24a.38.38,0,0,0,.75,0Z" transform="translate(0 0)"/><path class="cls-7" d="M965.38,755V726a.38.38,0,0,0-.75,0v29a.38.38,0,0,0,.75,0Z" transform="translate(0 0)"/><path class="cls-7" d="M969.19,754l.59-33a.38.38,0,0,0-.75,0l-.59,33a.38.38,0,0,0,.75,0Z" transform="translate(0 0)"/><path class="cls-7" d="M972.3,753l.24-37a.38.38,0,0,0-.75,0l-.24,37a.38.38,0,0,0,.75,0Z" transform="translate(0 0)"/><path class="cls-7" d="M975.49,753l-1.57-18c0-.47-.79-.48-.75,0l1.57,18c0,.48.8.48.75,0Z" transform="translate(0 0)"/><path class="cls-7" d="M957.38,752V725a.38.38,0,0,0-.75,0v27a.38.38,0,0,0,.75,0Z" transform="translate(0 0)"/><path class="cls-7" d="M962.31,754q.39-17.52-.2-35c0-.48-.77-.48-.75,0q.58,17.52.2,35a.38.38,0,0,0,.75,0Z" transform="translate(0 0)"/><path class="cls-7" d="M966.37,750V720a.38.38,0,0,0-.75,0v30a.38.38,0,0,0,.75,0Z" transform="translate(0 0)"/><path class="cls-7" d="M975.24,754a128.68,128.68,0,0,0-1.61-32.14c-.09-.47-.81-.27-.73.2A127.08,127.08,0,0,1,974.49,754c0,.48.71.48.75,0Z" transform="translate(0 0)"/><path class="cls-7" d="M976.26,751a140.57,140.57,0,0,0-.48-23c0-.48-.8-.48-.75,0a140.57,140.57,0,0,1,.48,23c0,.48.72.48.75,0Z" transform="translate(0 0)"/><path class="cls-7" d="M953.27,757a271.68,271.68,0,0,0-.54-33c0-.48-.79-.48-.75,0a271.68,271.68,0,0,1,.54,33c0,.48.73.48.75,0Z" transform="translate(0 0)"/><path class="cls-7" d="M958.28,752a309,309,0,0,0-.36-31c0-.48-.78-.48-.75,0a309,309,0,0,1,.36,31c0,.48.73.48.75,0Z" transform="translate(0 0)"/><path class="cls-7" d="M979.08,755l1.28-33c0-.48-.73-.48-.75,0l-1.28,33c0,.48.73.48.75,0Z" transform="translate(0 0)"/><path class="cls-7" d="M926.38,754V734a.38.38,0,0,0-.75,0v20a.38.38,0,0,0,.75,0Z" transform="translate(0 0)"/><path class="cls-7" d="M930.55,755l-1.32-24c0-.48-.77-.49-.75,0l1.32,24c0,.48.78.48.75,0Z" transform="translate(0 0)"/><path class="cls-7" d="M934.38,755V731a.38.38,0,0,0-.75,0v24a.38.38,0,0,0,.75,0Z" transform="translate(0 0)"/><path class="cls-7" d="M937.38,755V726a.38.38,0,0,0-.75,0v29a.38.38,0,0,0,.75,0Z" transform="translate(0 0)"/><path class="cls-7" d="M941.19,754l.59-33a.38.38,0,0,0-.75,0l-.59,33a.38.38,0,0,0,.75,0Z" transform="translate(0 0)"/><path class="cls-7" d="M944.3,753l.24-37a.38.38,0,0,0-.75,0l-.24,37a.38.38,0,0,0,.75,0Z" transform="translate(0 0)"/><path class="cls-7" d="M947.49,753l-1.57-18c0-.47-.79-.48-.75,0l1.57,18c0,.48.8.48.75,0Z" transform="translate(0 0)"/><path class="cls-7" d="M929.38,752V725a.38.38,0,0,0-.75,0v27a.38.38,0,0,0,.75,0Z" transform="translate(0 0)"/><path class="cls-7" d="M934.31,754q.39-17.52-.2-35c0-.48-.77-.48-.75,0q.58,17.52.2,35a.38.38,0,0,0,.75,0Z" transform="translate(0 0)"/><path class="cls-7" d="M938.37,750V720a.38.38,0,0,0-.75,0v30a.38.38,0,0,0,.75,0Z" transform="translate(0 0)"/><path class="cls-7" d="M947.24,754a128.68,128.68,0,0,0-1.61-32.14c-.09-.47-.81-.27-.73.2A127.08,127.08,0,0,1,946.49,754c0,.48.71.48.75,0Z" transform="translate(0 0)"/><path class="cls-7" d="M948.26,751a140.57,140.57,0,0,0-.48-23c0-.48-.8-.48-.75,0a140.57,140.57,0,0,1,.48,23c0,.48.72.48.75,0Z" transform="translate(0 0)"/><path class="cls-7" d="M925.27,757a271.68,271.68,0,0,0-.54-33c0-.48-.79-.48-.75,0a271.68,271.68,0,0,1,.54,33c0,.48.73.48.75,0Z" transform="translate(0 0)"/><path class="cls-7" d="M930.28,752a309,309,0,0,0-.36-31c0-.48-.78-.48-.75,0a309,309,0,0,1,.36,31c0,.48.73.48.75,0Z" transform="translate(0 0)"/><path class="cls-7" d="M951.08,755l1.28-33c0-.48-.73-.48-.75,0l-1.28,33c0,.48.73.48.75,0Z" transform="translate(0 0)"/><path class="cls-7" d="M898.38,754V734a.38.38,0,0,0-.75,0v20a.38.38,0,0,0,.75,0Z" transform="translate(0 0)"/><path class="cls-7" d="M902.55,755l-1.32-24c0-.48-.77-.49-.75,0l1.32,24c0,.48.78.48.75,0Z" transform="translate(0 0)"/><path class="cls-7" d="M906.38,755V731a.38.38,0,0,0-.75,0v24a.38.38,0,0,0,.75,0Z" transform="translate(0 0)"/><path class="cls-7" d="M909.38,755V726a.38.38,0,0,0-.75,0v29a.38.38,0,0,0,.75,0Z" transform="translate(0 0)"/><path class="cls-7" d="M913.19,754l.59-33a.38.38,0,0,0-.75,0l-.59,33a.38.38,0,0,0,.75,0Z" transform="translate(0 0)"/><path class="cls-7" d="M916.3,753l.24-37a.38.38,0,0,0-.75,0l-.24,37a.38.38,0,0,0,.75,0Z" transform="translate(0 0)"/><path class="cls-7" d="M919.49,753l-1.57-18c0-.47-.79-.48-.75,0l1.57,18c0,.48.8.48.75,0Z" transform="translate(0 0)"/><path class="cls-7" d="M901.38,752V725a.38.38,0,0,0-.75,0v27a.38.38,0,0,0,.75,0Z" transform="translate(0 0)"/><path class="cls-7" d="M906.31,754q.39-17.52-.2-35c0-.48-.77-.48-.75,0q.58,17.52.2,35a.38.38,0,0,0,.75,0Z" transform="translate(0 0)"/><path class="cls-7" d="M910.37,750V720a.38.38,0,0,0-.75,0v30a.38.38,0,0,0,.75,0Z" transform="translate(0 0)"/><path class="cls-7" d="M919.24,754a128.68,128.68,0,0,0-1.61-32.14c-.09-.47-.81-.27-.73.2A127.08,127.08,0,0,1,918.49,754c0,.48.71.48.75,0Z" transform="translate(0 0)"/><path class="cls-7" d="M920.26,751a140.57,140.57,0,0,0-.48-23c0-.48-.8-.48-.75,0a140.57,140.57,0,0,1,.48,23c0,.48.72.48.75,0Z" transform="translate(0 0)"/><path class="cls-7" d="M897.27,757a271.68,271.68,0,0,0-.54-33c0-.48-.79-.48-.75,0a271.68,271.68,0,0,1,.54,33c0,.48.73.48.75,0Z" transform="translate(0 0)"/><path class="cls-7" d="M902.28,752a309,309,0,0,0-.36-31c0-.48-.78-.48-.75,0a309,309,0,0,1,.36,31c0,.48.73.48.75,0Z" transform="translate(0 0)"/><path class="cls-7" d="M923.08,755l1.28-33c0-.48-.73-.48-.75,0l-1.28,33c0,.48.73.48.75,0Z" transform="translate(0 0)"/><path class="cls-7" d="M875.38,753V733a.38.38,0,0,0-.75,0v20a.38.38,0,0,0,.75,0Z" transform="translate(0 0)"/><path class="cls-7" d="M879.55,754l-1.32-24c0-.48-.77-.49-.75,0l1.32,24c0,.48.78.48.75,0Z" transform="translate(0 0)"/><path class="cls-7" d="M883.38,754V730a.38.38,0,0,0-.75,0v24a.38.38,0,0,0,.75,0Z" transform="translate(0 0)"/><path class="cls-7" d="M886.38,754V725a.38.38,0,0,0-.75,0v29a.38.38,0,0,0,.75,0Z" transform="translate(0 0)"/><path class="cls-7" d="M890.19,753l.59-33a.38.38,0,0,0-.75,0l-.59,33a.38.38,0,0,0,.75,0Z" transform="translate(0 0)"/><path class="cls-7" d="M893.3,752l.24-37a.38.38,0,0,0-.75,0l-.24,37a.38.38,0,0,0,.75,0Z" transform="translate(0 0)"/><path class="cls-7" d="M896.49,752l-1.57-18c0-.47-.79-.48-.75,0l1.57,18c0,.48.8.48.75,0Z" transform="translate(0 0)"/><path class="cls-7" d="M878.38,751V724a.38.38,0,0,0-.75,0v27a.38.38,0,0,0,.75,0Z" transform="translate(0 0)"/><path class="cls-7" d="M883.31,753q.39-17.52-.2-35c0-.48-.77-.48-.75,0q.58,17.52.2,35a.38.38,0,0,0,.75,0Z" transform="translate(0 0)"/><path class="cls-7" d="M887.37,749V719a.38.38,0,0,0-.75,0v30a.38.38,0,0,0,.75,0Z" transform="translate(0 0)"/><path class="cls-7" d="M896.24,753a128.68,128.68,0,0,0-1.61-32.14c-.09-.47-.81-.27-.73.2A127.08,127.08,0,0,1,895.49,753c0,.48.71.48.75,0Z" transform="translate(0 0)"/><path class="cls-7" d="M897.26,750a140.57,140.57,0,0,0-.48-23c0-.48-.8-.48-.75,0a140.57,140.57,0,0,1,.48,23c0,.48.72.48.75,0Z" transform="translate(0 0)"/><path class="cls-7" d="M874.27,756a271.68,271.68,0,0,0-.54-33c0-.48-.79-.48-.75,0a271.68,271.68,0,0,1,.54,33c0,.48.73.48.75,0Z" transform="translate(0 0)"/><path class="cls-7" d="M879.28,751a309,309,0,0,0-.36-31c0-.48-.78-.48-.75,0a309,309,0,0,1,.36,31c0,.48.73.48.75,0Z" transform="translate(0 0)"/><path class="cls-7" d="M900.08,754l1.28-33c0-.48-.73-.48-.75,0l-1.28,33c0,.48.73.48.75,0Z" transform="translate(0 0)"/><path class="cls-8" d="M872.5,755.5h186c17.65,14.57,17.27,44.93.5,60.5H369.79c-25.3,0-56.83,8.6-51.37-26.15.46-2.92,1.09-6,3-8.23,3.34-3.9,9.22-4,14.35-3.85,178.4,6.19,357.12,1.84,534.9,0a132.77,132.77,0,0,0,.14-19.13c0-.7-.26-1.58-1-1.66s-.41,1.43,0,.89" transform="translate(0 0)"/></svg>