<svg id="Layer_1" data-name="Layer 1" xmlns="http://www.w3.org/2000/svg" xmlns:xlink="http://www.w3.org/1999/xlink" viewBox="0 0 718.33 702.65"><defs><style>.cls-1,.cls-2,.cls-5{stroke-miterlimit:10;}.cls-1{fill:url(#radial-gradient);stroke:url(#radial-gradient-2);}.cls-2{fill:#f2f2f2;stroke:#f2f2f2;}.cls-3{fill:#9cb581;}.cls-4{fill:#e0e0e0;}.cls-5{fill:none;stroke:#e0e0e0;}</style><radialGradient id="radial-gradient" cx="352.32" cy="309.51" r="309.01" gradientUnits="userSpaceOnUse"><stop offset="0" stop-color="#d3e2bf"/><stop offset="0.25" stop-color="#c4d6ae"/><stop offset="1" stop-color="#9cb581"/></radialGradient><radialGradient id="radial-gradient-2" cx="352.32" cy="309.51" r="309.51" xlink:href="#radial-gradient"/></defs><title>Logo Odontologia 1</title><circle class="cls-1" cx="352.32" cy="309.51" r="309.01"/><path class="cls-2" d="M686.69,715.2c-8.89-2.56-17,.8-22.76,8-21.88,27.61-16.5,67-23.1,101.66-1.29,6.78-3.17,13.66-7.3,19.18-32.06,42.84-61.48-53-67-75.14a764.4,764.4,0,0,1-21.26-141.5c-.83-15.15-1.07-31,5.68-44.61C578,528.4,635.9,565.08,679.71,567.46c44.78,2.44,107.64-43.44,136.88,15.38,6.75,13.58,6.51,29.46,5.68,44.61A764.4,764.4,0,0,1,801,769c-5.5,22.16-34.92,118-67,75.14-4.13-5.52-6-12.4-7.3-19.18-6.6-34.61-1.22-74-23.1-101.66-5.74-7.25-13.87-10.61-22.76-8" transform="translate(-330.2 -373.01)"/><path class="cls-3" d="M371.77,1051.57c0,12.61-6.73,24.09-21,24.09-13,0-20.59-10.49-20.59-23.76,0-13.07,7.32-23.76,21.05-23.76C363.92,1028.14,371.77,1038.11,371.77,1051.57Zm-37.75.13c0,10.63,5.88,20.66,17,20.66,11.95,0,17-9.77,17-20.72,0-10.76-5.67-20.2-16.82-20.2C339.24,1031.44,334,1041.28,334,1051.7Z" transform="translate(-330.2 -373.01)"/><path class="cls-3" d="M381.94,1028.8h15.31c12.67,0,21.45,8.85,21.45,22.71S410.12,1075,397.18,1075H381.94Zm3.56,42.9h11.16c12.21,0,18.21-8.58,18.21-20,0-10.16-5.41-19.6-18.21-19.6H385.5Z" transform="translate(-330.2 -373.01)"/><path class="cls-3" d="M467.67,1051.57c0,12.61-6.73,24.09-21,24.09-13,0-20.59-10.49-20.59-23.76,0-13.07,7.33-23.76,21.06-23.76C459.82,1028.14,467.67,1038.11,467.67,1051.57Zm-37.75.13c0,10.63,5.87,20.66,17,20.66,11.95,0,17-9.77,17-20.72,0-10.76-5.67-20.2-16.83-20.2C435.13,1031.44,429.92,1041.28,429.92,1051.7Z" transform="translate(-330.2 -373.01)"/><path class="cls-3" d="M477.84,1075v-46.2h5.28c7.19,11.09,24.08,36.89,27,41.91h.06c-.39-6.67-.33-13.46-.33-21V1028.8h3.63V1075h-4.88c-6.86-10.69-24-37.55-27.32-42.63h-.07c.33,6.07.26,12.8.26,21.18V1075Z" transform="translate(-330.2 -373.01)"/><path class="cls-3" d="M536.31,1032.1H520.8v-3.3h34.71v3.3H539.94V1075h-3.63Z" transform="translate(-330.2 -373.01)"/><path class="cls-3" d="M599.93,1051.57c0,12.61-6.73,24.09-21,24.09-13,0-20.6-10.49-20.6-23.76,0-13.07,7.33-23.76,21.06-23.76C592.08,1028.14,599.93,1038.11,599.93,1051.57Zm-37.75.13c0,10.63,5.88,20.66,17,20.66,12,0,17-9.77,17-20.72,0-10.76-5.67-20.2-16.82-20.2C567.4,1031.44,562.18,1041.28,562.18,1051.7Z" transform="translate(-330.2 -373.01)"/><path class="cls-3" d="M610.1,1028.8h3.56v42.9h24.81l-.66,3.3H610.1Z" transform="translate(-330.2 -373.01)"/><path class="cls-3" d="M683,1051.57c0,12.61-6.73,24.09-21,24.09-13,0-20.59-10.49-20.59-23.76,0-13.07,7.32-23.76,21-23.76C675.17,1028.14,683,1038.11,683,1051.57Zm-37.74.13c0,10.63,5.87,20.66,17,20.66,11.94,0,17-9.77,17-20.72,0-10.76-5.68-20.2-16.83-20.2C650.49,1031.44,645.28,1041.28,645.28,1051.7Z" transform="translate(-330.2 -373.01)"/><path class="cls-3" d="M728.83,1075h-3c-.27-.53-.4-2.9-.46-7.39-1.65,3.17-5.28,7.92-14.92,7.92-13.26,0-20.06-10.1-20.06-23.23,0-13.8,7.26-24.16,20.79-24.16,10,0,16.56,5.22,18,13.73h-3.56c-2-6.53-6.53-10.43-14.58-10.43-11.55,0-16.83,9-16.83,20.66,0,10.56,5.08,20.13,16.36,20.13,11.55,0,14.79-7.52,14.79-17.75V1054H710.48v-3.3h18.35Z" transform="translate(-330.2 -373.01)"/><path class="cls-3" d="M744.34,1028.8V1075h-3.56v-46.2Z" transform="translate(-330.2 -373.01)"/><path class="cls-3" d="M762.23,1059l-5.88,16h-3.63l17-46.2h4.23l17.68,46.2H787.7l-6-16Zm18.28-3.3c-5.15-13.73-7.79-20.33-8.72-23.43h-.06c-1.12,3.5-4.09,11.68-8.25,23.43Z" transform="translate(-330.2 -373.01)"/><path class="cls-3" d="M820.37,1028.8v28c0,12.27,6.93,15.44,13.46,15.44,7.72,0,13.47-3.24,13.47-15.44v-28h3.63v27.79c0,14.45-7.66,18.94-17.23,18.94-9.11,0-17-5-17-18.35V1028.8Z" transform="translate(-330.2 -373.01)"/><path class="cls-3" d="M863.86,1075v-46.2h5.28c7.2,11.09,24.09,36.89,27,41.91h.07c-.4-6.67-.33-13.46-.33-21V1028.8h3.63V1075h-4.88c-6.87-10.69-24-37.55-27.32-42.63h-.07c.33,6.07.26,12.8.26,21.18V1075Z" transform="translate(-330.2 -373.01)"/><path class="cls-3" d="M916.66,1028.8V1075H913.1v-46.2Z" transform="translate(-330.2 -373.01)"/><path class="cls-3" d="M934.55,1059l-5.88,16H925l17-46.2h4.22l17.69,46.2H960l-6-16Zm18.28-3.3c-5.15-13.73-7.79-20.33-8.71-23.43h-.07c-1.12,3.5-4.09,11.68-8.25,23.43Z" transform="translate(-330.2 -373.01)"/><path class="cls-3" d="M975.73,1053.42V1075H972.1v-46.2h16.57c9.1,0,13.92,4.89,13.92,12.15a10.46,10.46,0,0,1-8.64,10.82c4.75,1.12,7.92,4.22,7.92,12.08v1.78c0,3.23-.27,7.59.59,9.37h-3.63c-.86-2-.66-5.68-.66-9.63v-1.19c0-7.59-2.24-10.76-11.09-10.76Zm0-3.3h11.15c8.12,0,11.88-3,11.88-9.11,0-5.67-3.69-8.91-10.88-8.91H975.73Z" transform="translate(-330.2 -373.01)"/><path class="cls-3" d="M1019.16,1059l-5.88,16h-3.63l17-46.2h4.22l17.69,46.2h-3.9l-6-16Zm18.28-3.3c-5.15-13.73-7.79-20.33-8.71-23.43h-.07c-1.12,3.5-4.09,11.68-8.25,23.43Z" transform="translate(-330.2 -373.01)"/><path class="cls-4" d="M567.51,670.65c-2.4-10.21-5.1-19.89-7.27-30s-3.59-20.82-2.51-31.76a77.09,77.09,0,0,1,1.32-8.19,62.5,62.5,0,0,1,2.48-8,51.44,51.44,0,0,1,3.8-7.61,44.73,44.73,0,0,1,5.23-6.75,42.45,42.45,0,0,1,6.43-5.48,37.25,37.25,0,0,1,7.41-3.91,32,32,0,0,1,8.05-1.88,25.37,25.37,0,0,1,8,.64,39.79,39.79,0,0,0-7.26,2.34,38.77,38.77,0,0,0-6.26,3.67,42.59,42.59,0,0,0-5.31,4.69,49,49,0,0,0-4.38,5.42c-5.25,7.59-7.6,16.7-8.57,26.17s-.41,19.38.12,29.58c.23,5.1.45,10.28.35,15.51A80.78,80.78,0,0,1,567.51,670.65Z" transform="translate(-330.2 -373.01)"/><path class="cls-4" d="M742.91,838.39a23.85,23.85,0,0,0,11.57-4.85,30.81,30.81,0,0,0,7.8-8.8c4.11-6.72,6.37-14.79,9.13-23.14s5.45-16.54,8.32-24.83,5.82-16.62,9.56-25a115,115,0,0,1-1.16,27A162.34,162.34,0,0,1,781.86,805c-.73,2.12-1.43,4.24-2.23,6.38s-1.67,4.28-2.68,6.41A48.75,48.75,0,0,1,769.13,830,29.79,29.79,0,0,1,757,838.31C752.36,840,747.15,840.23,742.91,838.39Z" transform="translate(-330.2 -373.01)"/><circle class="cls-5" cx="352.33" cy="309.52" r="239.01"/></svg>